%
M48
M72
T01C0.0276
T02C0.0320
T03C0.0394
T04C0.1000
%
T01
X13181Y2681
X13181Y3681
X13181Y7181
X12181Y7181
T02
X11181Y7181
X10681Y5681
X9681Y5681
X8681Y5681
X7181Y6181
X7181Y7181
X11681Y5681
X13681Y5181
X14681Y5181
X14181Y7181
X18181Y7181
X11681Y2681
X10681Y2681
X9681Y2681
X8681Y2681
X7181Y2181
T03
X5181Y2681
X5181Y3681
X5181Y4681
X5181Y5681
X16681Y5181
X16681Y4181
X16681Y3181
T04
X18181Y2181
X2181Y7681
M30
