G75*
G70*
%OFA0B0*%
%FSLAX24Y24*%
%IPPOS*%
%LPD*%
%AMOC8*
5,1,8,0,0,1.08239X$1,22.5*
%
%ADD10C,0.0600*%
%ADD11OC8,0.0600*%
%ADD12C,0.0860*%
%ADD13C,0.0240*%
%ADD14C,0.0160*%
D10*
X008931Y003881D02*
X008931Y004481D01*
X009931Y004481D02*
X009931Y003881D01*
X010931Y003881D02*
X010931Y004481D01*
X011931Y004481D02*
X011931Y003881D01*
X014431Y003881D02*
X014431Y004481D01*
X015431Y004481D02*
X015431Y003881D01*
X016431Y003881D02*
X016431Y004481D01*
X017431Y004481D02*
X017431Y003881D01*
X017431Y006881D02*
X017431Y007481D01*
X016431Y007481D02*
X016431Y006881D01*
X015431Y006881D02*
X015431Y007481D01*
X014431Y007481D02*
X014431Y006881D01*
X011931Y006881D02*
X011931Y007481D01*
X010931Y007481D02*
X010931Y006881D01*
X009931Y006881D02*
X009931Y007481D01*
X008931Y007481D02*
X008931Y006881D01*
D11*
X007431Y007681D03*
X013431Y009181D03*
X014431Y009181D03*
X013931Y008431D03*
X007431Y003681D03*
D12*
X005431Y004181D03*
X005431Y005181D03*
X005431Y006181D03*
X005431Y007181D03*
X019931Y007181D03*
X019931Y006181D03*
X019931Y005181D03*
X019931Y004181D03*
X019931Y003181D03*
X019931Y008181D03*
D13*
X018181Y007681D02*
X017681Y008181D01*
X016681Y008181D01*
X016431Y007931D01*
X016431Y007181D01*
X017431Y007181D02*
X017431Y006431D01*
X018681Y005181D01*
X019931Y005181D01*
X019931Y004181D02*
X018931Y004181D01*
X017681Y005431D01*
X016181Y005431D01*
X015431Y006181D01*
X015431Y007181D01*
X018181Y007681D02*
X018181Y006681D01*
X018681Y006181D01*
X019931Y006181D01*
X015431Y005181D02*
X015431Y004181D01*
X015431Y005181D02*
X014931Y005681D01*
X011431Y005681D01*
X010931Y006181D01*
X010931Y007181D01*
X009931Y007181D02*
X009931Y008181D01*
X010431Y008681D01*
X012931Y008681D01*
X013431Y009181D01*
D14*
X001813Y000931D02*
X001586Y001004D01*
X001394Y001144D01*
X001254Y001336D01*
X001181Y001563D01*
X001171Y001681D01*
X001171Y009432D01*
X001181Y009550D01*
X001254Y009776D01*
X001299Y009838D01*
X001191Y009579D01*
X001191Y009284D01*
X001304Y009012D01*
X001512Y008804D01*
X001784Y008691D01*
X002079Y008691D01*
X002351Y008804D01*
X002559Y009012D01*
X002671Y009284D01*
X002671Y009579D01*
X002559Y009851D01*
X002351Y010059D01*
X002079Y010171D01*
X001784Y010171D01*
X001525Y010064D01*
X001586Y010109D01*
X001813Y010182D01*
X001931Y010191D01*
X021384Y010191D01*
X021431Y010191D01*
X021550Y010182D01*
X021776Y010109D01*
X021969Y009969D01*
X022109Y009776D01*
X022182Y009550D01*
X022191Y009431D01*
X022191Y001729D01*
X022191Y001681D01*
X022182Y001563D01*
X022109Y001336D01*
X022064Y001275D01*
X022171Y001534D01*
X022171Y001829D01*
X022059Y002101D01*
X021851Y002309D01*
X021579Y002421D01*
X021284Y002421D01*
X021012Y002309D01*
X020804Y002101D01*
X020691Y001829D01*
X020691Y001534D01*
X020804Y001262D01*
X021012Y001054D01*
X021284Y000941D01*
X021579Y000941D01*
X021838Y001049D01*
X021776Y001004D01*
X021550Y000931D01*
X021431Y000921D01*
X001979Y000921D01*
X001931Y000921D01*
X001813Y000931D01*
X001679Y000974D02*
X021205Y000974D01*
X020934Y001133D02*
X001410Y001133D01*
X001287Y001291D02*
X020792Y001291D01*
X020726Y001450D02*
X001217Y001450D01*
X001177Y001608D02*
X020691Y001608D01*
X020691Y001767D02*
X001171Y001767D01*
X001171Y001925D02*
X020731Y001925D01*
X020797Y002084D02*
X001171Y002084D01*
X001171Y002242D02*
X020946Y002242D01*
X021235Y002401D02*
X001171Y002401D01*
X001171Y002560D02*
X019682Y002560D01*
X019798Y002511D02*
X020065Y002511D01*
X020311Y002613D01*
X020499Y002802D01*
X020601Y003048D01*
X020601Y003315D01*
X020499Y003561D01*
X020379Y003681D01*
X020499Y003802D01*
X020601Y004048D01*
X020601Y004315D01*
X020499Y004561D01*
X020379Y004681D01*
X020499Y004802D01*
X020601Y005048D01*
X020601Y005315D01*
X020499Y005561D01*
X020379Y005681D01*
X020499Y005802D01*
X020601Y006048D01*
X020601Y006315D01*
X020499Y006561D01*
X020336Y006724D01*
X020397Y006784D01*
X020453Y006862D01*
X020497Y006947D01*
X020526Y007039D01*
X020541Y007133D01*
X020541Y007163D01*
X019950Y007163D01*
X019950Y007200D01*
X020541Y007200D01*
X020541Y007229D01*
X020526Y007324D01*
X020497Y007416D01*
X020453Y007501D01*
X020397Y007579D01*
X020336Y007639D01*
X020499Y007802D01*
X020601Y008048D01*
X020601Y008315D01*
X020499Y008561D01*
X020311Y008749D01*
X020065Y008851D01*
X019798Y008851D01*
X019552Y008749D01*
X019363Y008561D01*
X019261Y008315D01*
X019261Y008048D01*
X019363Y007802D01*
X019526Y007639D01*
X019466Y007579D01*
X019410Y007501D01*
X019366Y007416D01*
X019336Y007324D01*
X019321Y007229D01*
X019321Y007200D01*
X019913Y007200D01*
X019913Y007163D01*
X019321Y007163D01*
X019321Y007133D01*
X019336Y007039D01*
X019366Y006947D01*
X019410Y006862D01*
X019466Y006784D01*
X019526Y006724D01*
X019363Y006561D01*
X019355Y006541D01*
X018831Y006541D01*
X018541Y006831D01*
X018541Y007610D01*
X018541Y007753D01*
X018487Y007885D01*
X017987Y008385D01*
X017885Y008487D01*
X017753Y008541D01*
X016753Y008541D01*
X016610Y008541D01*
X016477Y008487D01*
X016227Y008237D01*
X016126Y008135D01*
X016071Y008003D01*
X016071Y007885D01*
X015974Y007787D01*
X015931Y007685D01*
X015889Y007787D01*
X015737Y007939D01*
X015539Y008021D01*
X015324Y008021D01*
X015126Y007939D01*
X014974Y007787D01*
X014931Y007685D01*
X014889Y007787D01*
X014737Y007939D01*
X014539Y008021D01*
X014324Y008021D01*
X014257Y007994D01*
X014471Y008208D01*
X014471Y008655D01*
X014425Y008701D01*
X014431Y008701D01*
X014431Y009181D01*
X014432Y009181D01*
X014432Y009182D01*
X014431Y009182D01*
X014431Y009661D01*
X014233Y009661D01*
X013971Y009400D01*
X013971Y009405D01*
X013655Y009721D01*
X013208Y009721D01*
X012891Y009405D01*
X012891Y009151D01*
X012782Y009041D01*
X010360Y009041D01*
X010227Y008987D01*
X010126Y008885D01*
X009626Y008385D01*
X009571Y008253D01*
X009571Y008110D01*
X009571Y007885D01*
X009474Y007787D01*
X009431Y007685D01*
X009389Y007787D01*
X009237Y007939D01*
X009039Y008021D01*
X008824Y008021D01*
X008626Y007939D01*
X008474Y007787D01*
X008391Y007589D01*
X008391Y006774D01*
X008474Y006576D01*
X008626Y006424D01*
X008824Y006341D01*
X009039Y006341D01*
X009237Y006424D01*
X009389Y006576D01*
X009431Y006678D01*
X009474Y006576D01*
X009626Y006424D01*
X009824Y006341D01*
X010039Y006341D01*
X010237Y006424D01*
X010389Y006576D01*
X010431Y006678D01*
X010474Y006576D01*
X010571Y006478D01*
X010571Y006110D01*
X010626Y005977D01*
X010727Y005876D01*
X011227Y005376D01*
X011360Y005321D01*
X011503Y005321D01*
X014782Y005321D01*
X015071Y005032D01*
X015071Y004885D01*
X014974Y004787D01*
X014931Y004685D01*
X014889Y004787D01*
X014737Y004939D01*
X014539Y005021D01*
X014324Y005021D01*
X014126Y004939D01*
X013974Y004787D01*
X013891Y004589D01*
X013891Y003774D01*
X013974Y003576D01*
X014126Y003424D01*
X014324Y003341D01*
X014539Y003341D01*
X014737Y003424D01*
X014889Y003576D01*
X014931Y003678D01*
X014974Y003576D01*
X015126Y003424D01*
X015324Y003341D01*
X015539Y003341D01*
X015737Y003424D01*
X015889Y003576D01*
X015966Y003761D01*
X015987Y003697D01*
X016021Y003630D01*
X016065Y003569D01*
X016119Y003515D01*
X016180Y003471D01*
X016247Y003437D01*
X016319Y003413D01*
X016394Y003401D01*
X016431Y003401D01*
X016431Y004181D01*
X016432Y004181D01*
X016432Y004182D01*
X016431Y004182D01*
X016431Y004961D01*
X016394Y004961D01*
X016319Y004950D01*
X016247Y004926D01*
X016180Y004892D01*
X016119Y004848D01*
X016065Y004794D01*
X016021Y004733D01*
X015987Y004666D01*
X015966Y004602D01*
X015889Y004787D01*
X015791Y004885D01*
X015791Y005110D01*
X015791Y005253D01*
X015749Y005354D01*
X015977Y005126D01*
X016110Y005071D01*
X016253Y005071D01*
X017532Y005071D01*
X018727Y003876D01*
X018860Y003821D01*
X019003Y003821D01*
X019355Y003821D01*
X019363Y003802D01*
X019484Y003681D01*
X019363Y003561D01*
X019261Y003315D01*
X019261Y003048D01*
X019363Y002802D01*
X019552Y002613D01*
X019798Y002511D01*
X020181Y002560D02*
X022191Y002560D01*
X022191Y002718D02*
X020416Y002718D01*
X020530Y002877D02*
X022191Y002877D01*
X022191Y003035D02*
X020596Y003035D01*
X020601Y003194D02*
X022191Y003194D01*
X022191Y003352D02*
X020586Y003352D01*
X020520Y003511D02*
X022191Y003511D01*
X022191Y003669D02*
X020391Y003669D01*
X020510Y003828D02*
X022191Y003828D01*
X022191Y003986D02*
X020576Y003986D01*
X020601Y004145D02*
X022191Y004145D01*
X022191Y004304D02*
X020601Y004304D01*
X020540Y004462D02*
X022191Y004462D01*
X022191Y004621D02*
X020440Y004621D01*
X020477Y004779D02*
X022191Y004779D01*
X022191Y004938D02*
X020556Y004938D01*
X020601Y005096D02*
X022191Y005096D01*
X022191Y005255D02*
X020601Y005255D01*
X020561Y005413D02*
X022191Y005413D01*
X022191Y005572D02*
X020488Y005572D01*
X020428Y005730D02*
X022191Y005730D01*
X022191Y005889D02*
X020535Y005889D01*
X020601Y006048D02*
X022191Y006048D01*
X022191Y006206D02*
X020601Y006206D01*
X020581Y006365D02*
X022191Y006365D01*
X022191Y006523D02*
X020515Y006523D01*
X020379Y006682D02*
X022191Y006682D01*
X022191Y006840D02*
X020437Y006840D01*
X020513Y006999D02*
X022191Y006999D01*
X022191Y007157D02*
X020541Y007157D01*
X020528Y007316D02*
X022191Y007316D01*
X022191Y007474D02*
X020467Y007474D01*
X020342Y007633D02*
X022191Y007633D01*
X022191Y007791D02*
X020489Y007791D01*
X020561Y007950D02*
X022191Y007950D01*
X022191Y008109D02*
X020601Y008109D01*
X020601Y008267D02*
X022191Y008267D01*
X022191Y008426D02*
X020555Y008426D01*
X020476Y008584D02*
X022191Y008584D01*
X022191Y008743D02*
X020318Y008743D01*
X019545Y008743D02*
X014672Y008743D01*
X014630Y008701D02*
X014911Y008983D01*
X014911Y009181D01*
X014432Y009181D01*
X014432Y008701D01*
X014630Y008701D01*
X014471Y008584D02*
X019387Y008584D01*
X019307Y008426D02*
X017946Y008426D01*
X018105Y008267D02*
X019261Y008267D01*
X019261Y008109D02*
X018263Y008109D01*
X018422Y007950D02*
X019302Y007950D01*
X019374Y007791D02*
X018525Y007791D01*
X018541Y007633D02*
X019520Y007633D01*
X019396Y007474D02*
X018541Y007474D01*
X018541Y007316D02*
X019335Y007316D01*
X019321Y007157D02*
X018541Y007157D01*
X018541Y006999D02*
X019349Y006999D01*
X019425Y006840D02*
X018541Y006840D01*
X018690Y006682D02*
X019484Y006682D01*
X016258Y008267D02*
X014471Y008267D01*
X014471Y008426D02*
X016417Y008426D01*
X016115Y008109D02*
X014372Y008109D01*
X014711Y007950D02*
X015152Y007950D01*
X014978Y007791D02*
X014885Y007791D01*
X015711Y007950D02*
X016071Y007950D01*
X015978Y007791D02*
X015885Y007791D01*
X014431Y008743D02*
X014432Y008743D01*
X014431Y008901D02*
X014432Y008901D01*
X014431Y009060D02*
X014432Y009060D01*
X014432Y009182D02*
X014911Y009182D01*
X014911Y009380D01*
X014630Y009661D01*
X014432Y009661D01*
X014432Y009182D01*
X014431Y009218D02*
X014432Y009218D01*
X014431Y009377D02*
X014432Y009377D01*
X014431Y009535D02*
X014432Y009535D01*
X014756Y009535D02*
X022183Y009535D01*
X022191Y009377D02*
X014911Y009377D01*
X014911Y009218D02*
X022191Y009218D01*
X022191Y009060D02*
X014911Y009060D01*
X014830Y008901D02*
X022191Y008901D01*
X022135Y009694D02*
X013682Y009694D01*
X013841Y009535D02*
X014107Y009535D01*
X013180Y009694D02*
X002624Y009694D01*
X002557Y009853D02*
X022053Y009853D01*
X021911Y010011D02*
X002398Y010011D01*
X002083Y010170D02*
X021588Y010170D01*
X013022Y009535D02*
X002671Y009535D01*
X002671Y009377D02*
X012891Y009377D01*
X012891Y009218D02*
X002644Y009218D01*
X002578Y009060D02*
X012801Y009060D01*
X010142Y008901D02*
X002448Y008901D01*
X002203Y008743D02*
X009984Y008743D01*
X009825Y008584D02*
X001171Y008584D01*
X001171Y008743D02*
X001660Y008743D01*
X001415Y008901D02*
X001171Y008901D01*
X001171Y009060D02*
X001284Y009060D01*
X001219Y009218D02*
X001171Y009218D01*
X001171Y009377D02*
X001191Y009377D01*
X001180Y009535D02*
X001191Y009535D01*
X001227Y009694D02*
X001239Y009694D01*
X001774Y010170D02*
X001780Y010170D01*
X001171Y008426D02*
X009667Y008426D01*
X009577Y008267D02*
X001171Y008267D01*
X001171Y008109D02*
X007095Y008109D01*
X007208Y008221D02*
X006891Y007905D01*
X006891Y007458D01*
X007208Y007141D01*
X007655Y007141D01*
X007971Y007458D01*
X007971Y007905D01*
X007655Y008221D01*
X007208Y008221D01*
X006936Y007950D02*
X001171Y007950D01*
X001171Y007791D02*
X005154Y007791D01*
X005052Y007749D02*
X005298Y007851D01*
X005565Y007851D01*
X005811Y007749D01*
X005999Y007561D01*
X006101Y007315D01*
X006101Y007048D01*
X005999Y006802D01*
X005879Y006681D01*
X005999Y006561D01*
X006101Y006315D01*
X006101Y006048D01*
X005999Y005802D01*
X005879Y005681D01*
X005999Y005561D01*
X006101Y005315D01*
X006101Y005048D01*
X005999Y004802D01*
X005836Y004639D01*
X005897Y004579D01*
X005953Y004501D01*
X005997Y004416D01*
X006026Y004324D01*
X006041Y004229D01*
X006041Y004200D01*
X005450Y004200D01*
X005450Y004163D01*
X006041Y004163D01*
X006041Y004133D01*
X006026Y004039D01*
X005997Y003947D01*
X005953Y003862D01*
X005897Y003784D01*
X005829Y003716D01*
X005751Y003660D01*
X005666Y003616D01*
X005574Y003586D01*
X005479Y003571D01*
X005450Y003571D01*
X005450Y004163D01*
X005413Y004163D01*
X004821Y004163D01*
X004821Y004133D01*
X004836Y004039D01*
X004866Y003947D01*
X004910Y003862D01*
X004966Y003784D01*
X005034Y003716D01*
X005112Y003660D01*
X005197Y003616D01*
X005289Y003586D01*
X005383Y003571D01*
X005413Y003571D01*
X005413Y004163D01*
X005413Y004200D01*
X004821Y004200D01*
X004821Y004229D01*
X004836Y004324D01*
X004866Y004416D01*
X004910Y004501D01*
X004966Y004579D01*
X005026Y004639D01*
X004863Y004802D01*
X004761Y005048D01*
X004761Y005315D01*
X004863Y005561D01*
X004984Y005681D01*
X004863Y005802D01*
X004761Y006048D01*
X004761Y006315D01*
X004863Y006561D01*
X004984Y006681D01*
X004863Y006802D01*
X004761Y007048D01*
X004761Y007315D01*
X004863Y007561D01*
X005052Y007749D01*
X004935Y007633D02*
X001171Y007633D01*
X001171Y007474D02*
X004828Y007474D01*
X004762Y007316D02*
X001171Y007316D01*
X001171Y007157D02*
X004761Y007157D01*
X004782Y006999D02*
X001171Y006999D01*
X001171Y006840D02*
X004848Y006840D01*
X004984Y006682D02*
X001171Y006682D01*
X001171Y006523D02*
X004848Y006523D01*
X004782Y006365D02*
X001171Y006365D01*
X001171Y006206D02*
X004761Y006206D01*
X004762Y006048D02*
X001171Y006048D01*
X001171Y005889D02*
X004827Y005889D01*
X004935Y005730D02*
X001171Y005730D01*
X001171Y005572D02*
X004874Y005572D01*
X004802Y005413D02*
X001171Y005413D01*
X001171Y005255D02*
X004761Y005255D01*
X004761Y005096D02*
X001171Y005096D01*
X001171Y004938D02*
X004807Y004938D01*
X004886Y004779D02*
X001171Y004779D01*
X001171Y004621D02*
X005008Y004621D01*
X004890Y004462D02*
X001171Y004462D01*
X001171Y004304D02*
X004833Y004304D01*
X004821Y004145D02*
X001171Y004145D01*
X001171Y003986D02*
X004853Y003986D01*
X004934Y003828D02*
X001171Y003828D01*
X001171Y003669D02*
X005098Y003669D01*
X005413Y003669D02*
X005450Y003669D01*
X005450Y003828D02*
X005413Y003828D01*
X005413Y003986D02*
X005450Y003986D01*
X005450Y004145D02*
X005413Y004145D01*
X006009Y003986D02*
X006973Y003986D01*
X006891Y003905D02*
X006891Y003458D01*
X007208Y003141D01*
X007655Y003141D01*
X007971Y003458D01*
X007971Y003905D01*
X007655Y004221D01*
X007208Y004221D01*
X006891Y003905D01*
X006891Y003828D02*
X005929Y003828D01*
X005764Y003669D02*
X006891Y003669D01*
X006891Y003511D02*
X001171Y003511D01*
X001171Y003352D02*
X006997Y003352D01*
X007155Y003194D02*
X001171Y003194D01*
X001171Y003035D02*
X019267Y003035D01*
X019261Y003194D02*
X007707Y003194D01*
X007866Y003352D02*
X008798Y003352D01*
X008824Y003341D02*
X009039Y003341D01*
X009237Y003424D01*
X009389Y003576D01*
X009431Y003678D01*
X009474Y003576D01*
X009626Y003424D01*
X009824Y003341D01*
X010039Y003341D01*
X010237Y003424D01*
X010389Y003576D01*
X010431Y003678D01*
X010474Y003576D01*
X010626Y003424D01*
X010824Y003341D01*
X011039Y003341D01*
X011237Y003424D01*
X011389Y003576D01*
X011466Y003761D01*
X011487Y003697D01*
X011521Y003630D01*
X011565Y003569D01*
X011619Y003515D01*
X011680Y003471D01*
X011747Y003437D01*
X011819Y003413D01*
X011894Y003401D01*
X011931Y003401D01*
X011931Y004181D01*
X011932Y004181D01*
X011932Y004182D01*
X012411Y004182D01*
X012411Y004519D01*
X012400Y004594D01*
X012376Y004666D01*
X012342Y004733D01*
X012298Y004794D01*
X012244Y004848D01*
X012183Y004892D01*
X012116Y004926D01*
X012044Y004950D01*
X011969Y004961D01*
X011932Y004961D01*
X011932Y004182D01*
X011931Y004182D01*
X011931Y004961D01*
X011894Y004961D01*
X011819Y004950D01*
X011747Y004926D01*
X011680Y004892D01*
X011619Y004848D01*
X011565Y004794D01*
X011521Y004733D01*
X011487Y004666D01*
X011466Y004602D01*
X011389Y004787D01*
X011237Y004939D01*
X011039Y005021D01*
X010824Y005021D01*
X010626Y004939D01*
X010474Y004787D01*
X010431Y004685D01*
X010389Y004787D01*
X010237Y004939D01*
X010039Y005021D01*
X009824Y005021D01*
X009626Y004939D01*
X009474Y004787D01*
X009431Y004685D01*
X009389Y004787D01*
X009237Y004939D01*
X009039Y005021D01*
X008824Y005021D01*
X008626Y004939D01*
X008474Y004787D01*
X008391Y004589D01*
X008391Y003774D01*
X008474Y003576D01*
X008626Y003424D01*
X008824Y003341D01*
X009065Y003352D02*
X009798Y003352D01*
X010065Y003352D02*
X010798Y003352D01*
X011065Y003352D02*
X014298Y003352D01*
X014038Y003511D02*
X012238Y003511D01*
X012244Y003515D02*
X012298Y003569D01*
X012342Y003630D01*
X012376Y003697D01*
X012400Y003769D01*
X012411Y003844D01*
X012411Y004181D01*
X011932Y004181D01*
X011932Y003401D01*
X011969Y003401D01*
X012044Y003413D01*
X012116Y003437D01*
X012183Y003471D01*
X012244Y003515D01*
X011932Y003511D02*
X011931Y003511D01*
X011625Y003511D02*
X011324Y003511D01*
X011428Y003669D02*
X011501Y003669D01*
X011931Y003669D02*
X011932Y003669D01*
X011931Y003828D02*
X011932Y003828D01*
X011931Y003986D02*
X011932Y003986D01*
X011931Y004145D02*
X011932Y004145D01*
X011931Y004304D02*
X011932Y004304D01*
X011931Y004462D02*
X011932Y004462D01*
X011931Y004621D02*
X011932Y004621D01*
X011931Y004779D02*
X011932Y004779D01*
X011931Y004938D02*
X011932Y004938D01*
X012080Y004938D02*
X014124Y004938D01*
X013970Y004779D02*
X012308Y004779D01*
X012391Y004621D02*
X013905Y004621D01*
X013891Y004462D02*
X012411Y004462D01*
X012411Y004304D02*
X013891Y004304D01*
X013891Y004145D02*
X012411Y004145D01*
X012411Y003986D02*
X013891Y003986D01*
X013891Y003828D02*
X012409Y003828D01*
X012362Y003669D02*
X013935Y003669D01*
X014565Y003352D02*
X015298Y003352D01*
X015565Y003352D02*
X019277Y003352D01*
X019343Y003511D02*
X017738Y003511D01*
X017744Y003515D02*
X017798Y003569D01*
X017842Y003630D01*
X017876Y003697D01*
X017900Y003769D01*
X017911Y003844D01*
X017911Y004181D01*
X017432Y004181D01*
X017432Y004182D01*
X017911Y004182D01*
X017911Y004519D01*
X017900Y004594D01*
X017876Y004666D01*
X017842Y004733D01*
X017798Y004794D01*
X017744Y004848D01*
X017683Y004892D01*
X017616Y004926D01*
X017544Y004950D01*
X017469Y004961D01*
X017432Y004961D01*
X017432Y004182D01*
X017431Y004182D01*
X017431Y004961D01*
X017394Y004961D01*
X017319Y004950D01*
X017247Y004926D01*
X017180Y004892D01*
X017119Y004848D01*
X017065Y004794D01*
X017021Y004733D01*
X016987Y004666D01*
X016963Y004594D01*
X016951Y004519D01*
X016951Y004182D01*
X017431Y004182D01*
X017431Y004181D01*
X017432Y004181D01*
X017432Y003401D01*
X017469Y003401D01*
X017544Y003413D01*
X017616Y003437D01*
X017683Y003471D01*
X017744Y003515D01*
X017432Y003511D02*
X017431Y003511D01*
X017431Y003401D02*
X017431Y004181D01*
X016951Y004181D01*
X016951Y003844D01*
X016963Y003769D01*
X016987Y003697D01*
X017021Y003630D01*
X017065Y003569D01*
X017119Y003515D01*
X017180Y003471D01*
X017247Y003437D01*
X017319Y003413D01*
X017394Y003401D01*
X017431Y003401D01*
X017125Y003511D02*
X016738Y003511D01*
X016744Y003515D02*
X016798Y003569D01*
X016842Y003630D01*
X016876Y003697D01*
X016900Y003769D01*
X016911Y003844D01*
X016911Y004181D01*
X016432Y004181D01*
X016432Y003401D01*
X016469Y003401D01*
X016544Y003413D01*
X016616Y003437D01*
X016683Y003471D01*
X016744Y003515D01*
X016432Y003511D02*
X016431Y003511D01*
X016431Y003669D02*
X016432Y003669D01*
X016431Y003828D02*
X016432Y003828D01*
X016431Y003986D02*
X016432Y003986D01*
X016431Y004145D02*
X016432Y004145D01*
X016432Y004182D02*
X016911Y004182D01*
X016911Y004519D01*
X016900Y004594D01*
X016876Y004666D01*
X016842Y004733D01*
X016798Y004794D01*
X016744Y004848D01*
X016683Y004892D01*
X016616Y004926D01*
X016544Y004950D01*
X016469Y004961D01*
X016432Y004961D01*
X016432Y004182D01*
X016431Y004304D02*
X016432Y004304D01*
X016431Y004462D02*
X016432Y004462D01*
X016431Y004621D02*
X016432Y004621D01*
X016431Y004779D02*
X016432Y004779D01*
X016808Y004779D02*
X017054Y004779D01*
X016972Y004621D02*
X016891Y004621D01*
X016911Y004462D02*
X016951Y004462D01*
X016951Y004304D02*
X016911Y004304D01*
X016911Y004145D02*
X016951Y004145D01*
X016951Y003986D02*
X016911Y003986D01*
X016909Y003828D02*
X016954Y003828D01*
X017001Y003669D02*
X016862Y003669D01*
X017431Y003669D02*
X017432Y003669D01*
X017431Y003828D02*
X017432Y003828D01*
X017431Y003986D02*
X017432Y003986D01*
X017431Y004145D02*
X017432Y004145D01*
X017431Y004304D02*
X017432Y004304D01*
X017431Y004462D02*
X017432Y004462D01*
X017431Y004621D02*
X017432Y004621D01*
X017431Y004779D02*
X017432Y004779D01*
X017431Y004938D02*
X017432Y004938D01*
X017580Y004938D02*
X017666Y004938D01*
X017808Y004779D02*
X017825Y004779D01*
X017891Y004621D02*
X017983Y004621D01*
X017911Y004462D02*
X018142Y004462D01*
X018300Y004304D02*
X017911Y004304D01*
X017911Y004145D02*
X018459Y004145D01*
X018617Y003986D02*
X017911Y003986D01*
X017909Y003828D02*
X018844Y003828D01*
X019472Y003669D02*
X017862Y003669D01*
X019332Y002877D02*
X001171Y002877D01*
X001171Y002718D02*
X019447Y002718D01*
X021628Y002401D02*
X022191Y002401D01*
X022191Y002242D02*
X021917Y002242D01*
X022066Y002084D02*
X022191Y002084D01*
X022191Y001925D02*
X022131Y001925D01*
X022171Y001767D02*
X022191Y001767D01*
X022186Y001608D02*
X022171Y001608D01*
X022145Y001450D02*
X022136Y001450D01*
X022076Y001291D02*
X022071Y001291D01*
X021684Y000974D02*
X021658Y000974D01*
X016125Y003511D02*
X015824Y003511D01*
X015928Y003669D02*
X016001Y003669D01*
X015038Y003511D02*
X014824Y003511D01*
X014928Y003669D02*
X014935Y003669D01*
X015958Y004621D02*
X015972Y004621D01*
X015893Y004779D02*
X016054Y004779D01*
X016283Y004938D02*
X015791Y004938D01*
X015791Y005096D02*
X016050Y005096D01*
X015849Y005255D02*
X015791Y005255D01*
X016431Y004938D02*
X016432Y004938D01*
X016580Y004938D02*
X017283Y004938D01*
X015071Y004938D02*
X014739Y004938D01*
X014893Y004779D02*
X014970Y004779D01*
X015007Y005096D02*
X006101Y005096D01*
X006056Y004938D02*
X008624Y004938D01*
X008470Y004779D02*
X005977Y004779D01*
X005855Y004621D02*
X008405Y004621D01*
X008391Y004462D02*
X005973Y004462D01*
X006030Y004304D02*
X008391Y004304D01*
X008391Y004145D02*
X007731Y004145D01*
X007890Y003986D02*
X008391Y003986D01*
X008391Y003828D02*
X007971Y003828D01*
X007971Y003669D02*
X008435Y003669D01*
X008538Y003511D02*
X007971Y003511D01*
X007131Y004145D02*
X006041Y004145D01*
X006101Y005255D02*
X014849Y005255D01*
X011783Y004938D02*
X011239Y004938D01*
X011393Y004779D02*
X011554Y004779D01*
X011472Y004621D02*
X011458Y004621D01*
X010624Y004938D02*
X010239Y004938D01*
X010393Y004779D02*
X010470Y004779D01*
X009624Y004938D02*
X009239Y004938D01*
X009393Y004779D02*
X009470Y004779D01*
X011032Y005572D02*
X005988Y005572D01*
X005928Y005730D02*
X010873Y005730D01*
X010715Y005889D02*
X006035Y005889D01*
X006101Y006048D02*
X010597Y006048D01*
X010571Y006206D02*
X006101Y006206D01*
X006081Y006365D02*
X008768Y006365D01*
X008526Y006523D02*
X006015Y006523D01*
X005879Y006682D02*
X008430Y006682D01*
X008391Y006840D02*
X006015Y006840D01*
X006081Y006999D02*
X008391Y006999D01*
X008391Y007157D02*
X007671Y007157D01*
X007829Y007316D02*
X008391Y007316D01*
X008391Y007474D02*
X007971Y007474D01*
X007971Y007633D02*
X008410Y007633D01*
X008478Y007791D02*
X007971Y007791D01*
X007926Y007950D02*
X008652Y007950D01*
X009211Y007950D02*
X009571Y007950D01*
X009571Y008109D02*
X007768Y008109D01*
X006891Y007791D02*
X005709Y007791D01*
X005927Y007633D02*
X006891Y007633D01*
X006891Y007474D02*
X006035Y007474D01*
X006101Y007316D02*
X007033Y007316D01*
X007192Y007157D02*
X006101Y007157D01*
X009095Y006365D02*
X009768Y006365D01*
X009526Y006523D02*
X009337Y006523D01*
X010095Y006365D02*
X010571Y006365D01*
X010526Y006523D02*
X010337Y006523D01*
X011190Y005413D02*
X006061Y005413D01*
X009428Y003669D02*
X009435Y003669D01*
X009538Y003511D02*
X009324Y003511D01*
X010324Y003511D02*
X010538Y003511D01*
X010435Y003669D02*
X010428Y003669D01*
X009478Y007791D02*
X009385Y007791D01*
M02*
