%
M48
M72
T01C0.0320
T02C0.0394
T03C0.1000
%
T01
X7431Y3681
X8931Y4181
X9931Y4181
X10931Y4181
X11931Y4181
X14431Y4181
X15431Y4181
X16431Y4181
X17431Y4181
X17431Y7181
X16431Y7181
X15431Y7181
X14431Y7181
X13931Y8431
X13431Y9181
X14431Y9181
X11931Y7181
X10931Y7181
X9931Y7181
X8931Y7181
X7431Y7681
T02
X5431Y7181
X5431Y6181
X5431Y5181
X5431Y4181
X19931Y4181
X19931Y3181
X19931Y5181
X19931Y6181
X19931Y7181
X19931Y8181
T03
X21431Y1681
X1931Y9431
M30
