G75*
G70*
%OFA0B0*%
%FSLAX24Y24*%
%IPPOS*%
%LPD*%
%AMOC8*
5,1,8,0,0,1.08239X$1,22.5*
%
%ADD10C,0.0000*%
%ADD11C,0.0600*%
%ADD12OC8,0.0600*%
%ADD13C,0.0860*%
%ADD14R,0.0512X0.0630*%
%ADD15R,0.0630X0.0512*%
%ADD16R,0.0630X0.0551*%
%ADD17C,0.0240*%
%ADD18C,0.0160*%
D10*
X001931Y000681D02*
X021431Y000681D01*
X020931Y001681D02*
X020933Y001725D01*
X020939Y001769D01*
X020949Y001812D01*
X020962Y001854D01*
X020979Y001895D01*
X021000Y001934D01*
X021024Y001971D01*
X021051Y002006D01*
X021081Y002038D01*
X021114Y002068D01*
X021150Y002094D01*
X021187Y002118D01*
X021227Y002137D01*
X021268Y002154D01*
X021311Y002166D01*
X021354Y002175D01*
X021398Y002180D01*
X021442Y002181D01*
X021486Y002178D01*
X021530Y002171D01*
X021573Y002160D01*
X021615Y002146D01*
X021655Y002128D01*
X021694Y002106D01*
X021730Y002082D01*
X021764Y002054D01*
X021796Y002023D01*
X021825Y001989D01*
X021851Y001953D01*
X021873Y001915D01*
X021892Y001875D01*
X021907Y001833D01*
X021919Y001791D01*
X021927Y001747D01*
X021931Y001703D01*
X021931Y001659D01*
X021927Y001615D01*
X021919Y001571D01*
X021907Y001529D01*
X021892Y001487D01*
X021873Y001447D01*
X021851Y001409D01*
X021825Y001373D01*
X021796Y001339D01*
X021764Y001308D01*
X021730Y001280D01*
X021694Y001256D01*
X021655Y001234D01*
X021615Y001216D01*
X021573Y001202D01*
X021530Y001191D01*
X021486Y001184D01*
X021442Y001181D01*
X021398Y001182D01*
X021354Y001187D01*
X021311Y001196D01*
X021268Y001208D01*
X021227Y001225D01*
X021187Y001244D01*
X021150Y001268D01*
X021114Y001294D01*
X021081Y001324D01*
X021051Y001356D01*
X021024Y001391D01*
X021000Y001428D01*
X020979Y001467D01*
X020962Y001508D01*
X020949Y001550D01*
X020939Y001593D01*
X020933Y001637D01*
X020931Y001681D01*
X021431Y000681D02*
X021491Y000683D01*
X021552Y000688D01*
X021611Y000697D01*
X021670Y000710D01*
X021729Y000726D01*
X021786Y000746D01*
X021841Y000769D01*
X021896Y000796D01*
X021948Y000825D01*
X021999Y000858D01*
X022048Y000894D01*
X022094Y000932D01*
X022138Y000974D01*
X022180Y001018D01*
X022218Y001064D01*
X022254Y001113D01*
X022287Y001164D01*
X022316Y001216D01*
X022343Y001271D01*
X022366Y001326D01*
X022386Y001383D01*
X022402Y001442D01*
X022415Y001501D01*
X022424Y001560D01*
X022429Y001621D01*
X022431Y001681D01*
X022431Y009431D01*
X022429Y009491D01*
X022424Y009552D01*
X022415Y009611D01*
X022402Y009670D01*
X022386Y009729D01*
X022366Y009786D01*
X022343Y009841D01*
X022316Y009896D01*
X022287Y009948D01*
X022254Y009999D01*
X022218Y010048D01*
X022180Y010094D01*
X022138Y010138D01*
X022094Y010180D01*
X022048Y010218D01*
X021999Y010254D01*
X021948Y010287D01*
X021896Y010316D01*
X021841Y010343D01*
X021786Y010366D01*
X021729Y010386D01*
X021670Y010402D01*
X021611Y010415D01*
X021552Y010424D01*
X021491Y010429D01*
X021431Y010431D01*
X001931Y010431D01*
X001431Y009431D02*
X001433Y009475D01*
X001439Y009519D01*
X001449Y009562D01*
X001462Y009604D01*
X001479Y009645D01*
X001500Y009684D01*
X001524Y009721D01*
X001551Y009756D01*
X001581Y009788D01*
X001614Y009818D01*
X001650Y009844D01*
X001687Y009868D01*
X001727Y009887D01*
X001768Y009904D01*
X001811Y009916D01*
X001854Y009925D01*
X001898Y009930D01*
X001942Y009931D01*
X001986Y009928D01*
X002030Y009921D01*
X002073Y009910D01*
X002115Y009896D01*
X002155Y009878D01*
X002194Y009856D01*
X002230Y009832D01*
X002264Y009804D01*
X002296Y009773D01*
X002325Y009739D01*
X002351Y009703D01*
X002373Y009665D01*
X002392Y009625D01*
X002407Y009583D01*
X002419Y009541D01*
X002427Y009497D01*
X002431Y009453D01*
X002431Y009409D01*
X002427Y009365D01*
X002419Y009321D01*
X002407Y009279D01*
X002392Y009237D01*
X002373Y009197D01*
X002351Y009159D01*
X002325Y009123D01*
X002296Y009089D01*
X002264Y009058D01*
X002230Y009030D01*
X002194Y009006D01*
X002155Y008984D01*
X002115Y008966D01*
X002073Y008952D01*
X002030Y008941D01*
X001986Y008934D01*
X001942Y008931D01*
X001898Y008932D01*
X001854Y008937D01*
X001811Y008946D01*
X001768Y008958D01*
X001727Y008975D01*
X001687Y008994D01*
X001650Y009018D01*
X001614Y009044D01*
X001581Y009074D01*
X001551Y009106D01*
X001524Y009141D01*
X001500Y009178D01*
X001479Y009217D01*
X001462Y009258D01*
X001449Y009300D01*
X001439Y009343D01*
X001433Y009387D01*
X001431Y009431D01*
X000931Y009431D02*
X000931Y001681D01*
X000933Y001621D01*
X000938Y001560D01*
X000947Y001501D01*
X000960Y001442D01*
X000976Y001383D01*
X000996Y001326D01*
X001019Y001271D01*
X001046Y001216D01*
X001075Y001164D01*
X001108Y001113D01*
X001144Y001064D01*
X001182Y001018D01*
X001224Y000974D01*
X001268Y000932D01*
X001314Y000894D01*
X001363Y000858D01*
X001414Y000825D01*
X001466Y000796D01*
X001521Y000769D01*
X001576Y000746D01*
X001633Y000726D01*
X001692Y000710D01*
X001751Y000697D01*
X001810Y000688D01*
X001871Y000683D01*
X001931Y000681D01*
X000931Y009431D02*
X000933Y009491D01*
X000938Y009552D01*
X000947Y009611D01*
X000960Y009670D01*
X000976Y009729D01*
X000996Y009786D01*
X001019Y009841D01*
X001046Y009896D01*
X001075Y009948D01*
X001108Y009999D01*
X001144Y010048D01*
X001182Y010094D01*
X001224Y010138D01*
X001268Y010180D01*
X001314Y010218D01*
X001363Y010254D01*
X001414Y010287D01*
X001466Y010316D01*
X001521Y010343D01*
X001576Y010366D01*
X001633Y010386D01*
X001692Y010402D01*
X001751Y010415D01*
X001810Y010424D01*
X001871Y010429D01*
X001931Y010431D01*
D11*
X008931Y007481D02*
X008931Y006881D01*
X009931Y006881D02*
X009931Y007481D01*
X010931Y007481D02*
X010931Y006881D01*
X011931Y006881D02*
X011931Y007481D01*
X014431Y007481D02*
X014431Y006881D01*
X015431Y006881D02*
X015431Y007481D01*
X016431Y007481D02*
X016431Y006881D01*
X017431Y006881D02*
X017431Y007481D01*
X017431Y004481D02*
X017431Y003881D01*
X016431Y003881D02*
X016431Y004481D01*
X015431Y004481D02*
X015431Y003881D01*
X014431Y003881D02*
X014431Y004481D01*
X011931Y004481D02*
X011931Y003881D01*
X010931Y003881D02*
X010931Y004481D01*
X009931Y004481D02*
X009931Y003881D01*
X008931Y003881D02*
X008931Y004481D01*
D12*
X007431Y003681D03*
X007431Y007681D03*
X013431Y009181D03*
X014431Y009181D03*
X013931Y008431D03*
D13*
X019931Y008181D03*
X019931Y007181D03*
X019931Y006181D03*
X019931Y005181D03*
X019931Y004181D03*
X019931Y003181D03*
X005431Y004181D03*
X005431Y005181D03*
X005431Y006181D03*
X005431Y007181D03*
D14*
X011057Y002681D03*
X011805Y002681D03*
X012807Y002681D03*
X013555Y002681D03*
X017807Y002681D03*
X018555Y002681D03*
D15*
X013181Y006288D03*
X013181Y007075D03*
X011931Y008538D03*
X011931Y009325D03*
X008431Y009450D03*
X008431Y008663D03*
X015681Y009038D03*
X015681Y009825D03*
D16*
X010522Y008681D03*
X009341Y008681D03*
D17*
X008450Y008681D01*
X008431Y008663D01*
X006913Y008663D01*
X005431Y007181D01*
X005431Y006181D02*
X009931Y006181D01*
X010931Y005181D01*
X010931Y004181D01*
X009931Y004181D02*
X009931Y004931D01*
X009681Y005181D01*
X005431Y005181D01*
X007431Y003681D02*
X007931Y003681D01*
X008431Y004181D01*
X008931Y004181D01*
X011805Y002681D02*
X012807Y002681D01*
X012807Y004555D01*
X011931Y005431D01*
X011931Y007181D01*
X011931Y008538D01*
X013431Y009181D02*
X014075Y009825D01*
X015681Y009825D01*
X017038Y009825D01*
X018681Y008181D01*
X018181Y007681D01*
X018181Y003681D01*
X017807Y003307D01*
X017807Y002681D01*
X018555Y002681D02*
X018555Y002180D01*
X018306Y001931D01*
X015681Y001931D01*
X014431Y003181D01*
X014431Y004181D01*
X013555Y004555D02*
X014431Y005431D01*
X014431Y007181D01*
X013931Y007181D01*
X013825Y007075D01*
X013181Y007075D01*
X013931Y007681D02*
X014431Y007181D01*
X013931Y007681D02*
X013931Y008431D01*
X009931Y008181D02*
X009931Y007181D01*
X008931Y007181D02*
X008431Y007181D01*
X007931Y007681D01*
X007431Y007681D01*
X009341Y008681D02*
X009431Y008681D01*
X009931Y008181D01*
X013555Y004555D02*
X013555Y002681D01*
X018555Y002681D02*
X019431Y002681D01*
X019931Y003181D01*
X019931Y008181D02*
X018681Y008181D01*
D18*
X001813Y000931D02*
X001586Y001004D01*
X001394Y001144D01*
X001254Y001336D01*
X001181Y001563D01*
X001171Y001681D01*
X001171Y009432D01*
X001181Y009550D01*
X001254Y009776D01*
X001299Y009838D01*
X001191Y009579D01*
X001191Y009284D01*
X001304Y009012D01*
X001512Y008804D01*
X001784Y008691D01*
X002079Y008691D01*
X002351Y008804D01*
X002559Y009012D01*
X002671Y009284D01*
X002671Y009579D01*
X002559Y009851D01*
X002351Y010059D01*
X002079Y010171D01*
X001784Y010171D01*
X001525Y010064D01*
X001586Y010109D01*
X001813Y010182D01*
X001931Y010191D01*
X015152Y010191D01*
X015150Y010185D01*
X014147Y010185D01*
X014003Y010185D01*
X013871Y010130D01*
X013462Y009721D01*
X013208Y009721D01*
X012891Y009405D01*
X012891Y008958D01*
X013208Y008641D01*
X013391Y008641D01*
X013391Y008208D01*
X013571Y008028D01*
X013571Y007753D01*
X013571Y007610D01*
X013596Y007549D01*
X013544Y007571D01*
X012819Y007571D01*
X012730Y007534D01*
X012663Y007467D01*
X012626Y007379D01*
X012626Y006771D01*
X012663Y006683D01*
X012711Y006635D01*
X012699Y006613D01*
X012686Y006567D01*
X012686Y006336D01*
X013133Y006336D01*
X013133Y006240D01*
X012686Y006240D01*
X012686Y006008D01*
X012699Y005962D01*
X012722Y005921D01*
X012756Y005888D01*
X012797Y005864D01*
X012843Y005852D01*
X013133Y005852D01*
X013133Y006239D01*
X013229Y006239D01*
X013229Y005852D01*
X013520Y005852D01*
X013566Y005864D01*
X013607Y005888D01*
X013640Y005921D01*
X013664Y005962D01*
X013676Y006008D01*
X013676Y006240D01*
X013230Y006240D01*
X013230Y006336D01*
X013676Y006336D01*
X013676Y006567D01*
X013664Y006613D01*
X013651Y006635D01*
X013700Y006683D01*
X013713Y006715D01*
X013753Y006715D01*
X013897Y006715D01*
X013913Y006722D01*
X013974Y006576D01*
X014071Y006478D01*
X014071Y005581D01*
X013250Y004759D01*
X013195Y004627D01*
X013195Y004484D01*
X013195Y003213D01*
X013181Y003207D01*
X013167Y003213D01*
X013167Y004484D01*
X013167Y004627D01*
X013113Y004759D01*
X012291Y005581D01*
X012291Y006478D01*
X012389Y006576D01*
X012471Y006774D01*
X012471Y007589D01*
X012389Y007787D01*
X012291Y007885D01*
X012291Y008042D01*
X012294Y008042D01*
X012382Y008078D01*
X012450Y008146D01*
X012486Y008234D01*
X012486Y008841D01*
X012450Y008930D01*
X012401Y008978D01*
X012414Y009000D01*
X012426Y009045D01*
X012426Y009277D01*
X011980Y009277D01*
X011980Y009373D01*
X012426Y009373D01*
X012426Y009605D01*
X012414Y009650D01*
X012390Y009692D01*
X012357Y009725D01*
X012316Y009749D01*
X012270Y009761D01*
X011979Y009761D01*
X011979Y009373D01*
X011883Y009373D01*
X011883Y009277D01*
X011436Y009277D01*
X011436Y009045D01*
X011449Y009000D01*
X011461Y008978D01*
X011413Y008930D01*
X011376Y008841D01*
X011376Y008234D01*
X011413Y008146D01*
X011480Y008078D01*
X011569Y008042D01*
X011571Y008042D01*
X011571Y007885D01*
X011474Y007787D01*
X011431Y007685D01*
X011389Y007787D01*
X011237Y007939D01*
X011039Y008021D01*
X010824Y008021D01*
X010626Y007939D01*
X010474Y007787D01*
X010431Y007685D01*
X010389Y007787D01*
X010291Y007885D01*
X010291Y008226D01*
X010464Y008226D01*
X010464Y008623D01*
X010580Y008623D01*
X010580Y008226D01*
X010861Y008226D01*
X010906Y008238D01*
X010947Y008262D01*
X010981Y008295D01*
X011005Y008336D01*
X011017Y008382D01*
X011017Y008624D01*
X010580Y008624D01*
X010580Y008739D01*
X011017Y008739D01*
X011017Y008981D01*
X011005Y009026D01*
X010981Y009068D01*
X010947Y009101D01*
X010906Y009125D01*
X010861Y009137D01*
X010580Y009137D01*
X010580Y008739D01*
X010464Y008739D01*
X010464Y008624D01*
X010027Y008624D01*
X010027Y008595D01*
X009896Y008726D01*
X009896Y009005D01*
X009859Y009093D01*
X009792Y009160D01*
X009704Y009197D01*
X008978Y009197D01*
X008926Y009175D01*
X008926Y009402D01*
X008480Y009402D01*
X008480Y009498D01*
X008926Y009498D01*
X008926Y009730D01*
X008914Y009775D01*
X008890Y009817D01*
X008857Y009850D01*
X008816Y009874D01*
X008770Y009886D01*
X008479Y009886D01*
X008479Y009498D01*
X008383Y009498D01*
X008383Y009402D01*
X007936Y009402D01*
X007936Y009170D01*
X007949Y009125D01*
X007961Y009103D01*
X007913Y009055D01*
X007900Y009023D01*
X006984Y009023D01*
X006841Y009023D01*
X006709Y008968D01*
X005584Y007843D01*
X005565Y007851D01*
X005298Y007851D01*
X005052Y007749D01*
X004863Y007561D01*
X004761Y007315D01*
X004761Y007048D01*
X004863Y006802D01*
X004984Y006681D01*
X004863Y006561D01*
X004761Y006315D01*
X004761Y006048D01*
X004863Y005802D01*
X004984Y005681D01*
X004863Y005561D01*
X004761Y005315D01*
X004761Y005048D01*
X004863Y004802D01*
X005026Y004639D01*
X004966Y004579D01*
X004910Y004501D01*
X004866Y004416D01*
X004836Y004324D01*
X004821Y004229D01*
X004821Y004200D01*
X005413Y004200D01*
X005413Y004163D01*
X005450Y004163D01*
X005450Y004200D01*
X006041Y004200D01*
X006041Y004229D01*
X006026Y004324D01*
X005997Y004416D01*
X005953Y004501D01*
X005897Y004579D01*
X005836Y004639D01*
X005999Y004802D01*
X006007Y004821D01*
X008508Y004821D01*
X008474Y004787D01*
X008391Y004589D01*
X008391Y004541D01*
X008360Y004541D01*
X008227Y004487D01*
X008126Y004385D01*
X007809Y004068D01*
X007655Y004221D01*
X007208Y004221D01*
X006891Y003905D01*
X006891Y003458D01*
X007208Y003141D01*
X007655Y003141D01*
X007835Y003321D01*
X007860Y003321D01*
X008003Y003321D01*
X008135Y003376D01*
X008433Y003674D01*
X008474Y003576D01*
X008626Y003424D01*
X008824Y003341D01*
X009039Y003341D01*
X009237Y003424D01*
X009389Y003576D01*
X009431Y003678D01*
X009474Y003576D01*
X009626Y003424D01*
X009824Y003341D01*
X010039Y003341D01*
X010237Y003424D01*
X010389Y003576D01*
X010431Y003678D01*
X010474Y003576D01*
X010626Y003424D01*
X010824Y003341D01*
X011039Y003341D01*
X011237Y003424D01*
X011389Y003576D01*
X011466Y003761D01*
X011487Y003697D01*
X011521Y003630D01*
X011565Y003569D01*
X011619Y003515D01*
X011680Y003471D01*
X011747Y003437D01*
X011819Y003413D01*
X011894Y003401D01*
X011931Y003401D01*
X011931Y004181D01*
X011932Y004181D01*
X011932Y004182D01*
X012411Y004182D01*
X012411Y004442D01*
X012447Y004406D01*
X012447Y003213D01*
X012416Y003200D01*
X012348Y003132D01*
X012311Y003044D01*
X012311Y003041D01*
X012301Y003041D01*
X012301Y003044D01*
X012265Y003132D01*
X012197Y003200D01*
X012109Y003236D01*
X011502Y003236D01*
X011414Y003200D01*
X011379Y003165D01*
X011337Y003176D01*
X011105Y003176D01*
X011105Y002730D01*
X011009Y002730D01*
X011009Y003176D01*
X010778Y003176D01*
X010732Y003164D01*
X010691Y003140D01*
X010657Y003107D01*
X010634Y003066D01*
X010621Y003020D01*
X010621Y002729D01*
X011009Y002729D01*
X011009Y002633D01*
X011105Y002633D01*
X011105Y002186D01*
X011337Y002186D01*
X011379Y002198D01*
X011414Y002163D01*
X011502Y002126D01*
X012109Y002126D01*
X012197Y002163D01*
X012265Y002230D01*
X012301Y002319D01*
X012301Y002321D01*
X012311Y002321D01*
X012311Y002319D01*
X012348Y002230D01*
X012416Y002163D01*
X012504Y002126D01*
X013111Y002126D01*
X013181Y002156D01*
X013252Y002126D01*
X013859Y002126D01*
X013947Y002163D01*
X014015Y002230D01*
X014051Y002319D01*
X014051Y003044D01*
X014015Y003132D01*
X013947Y003200D01*
X013915Y003213D01*
X013915Y003716D01*
X013974Y003576D01*
X014071Y003478D01*
X014071Y003253D01*
X014071Y003110D01*
X014126Y002977D01*
X015376Y001727D01*
X015477Y001626D01*
X015610Y001571D01*
X018235Y001571D01*
X018378Y001571D01*
X018510Y001626D01*
X018861Y001976D01*
X018915Y002109D01*
X018915Y002150D01*
X018947Y002163D01*
X019015Y002230D01*
X019051Y002319D01*
X019051Y002321D01*
X019360Y002321D01*
X019503Y002321D01*
X019635Y002376D01*
X019779Y002520D01*
X019798Y002511D01*
X020065Y002511D01*
X020311Y002613D01*
X020499Y002802D01*
X020601Y003048D01*
X020601Y003315D01*
X020499Y003561D01*
X020379Y003681D01*
X020499Y003802D01*
X020601Y004048D01*
X020601Y004315D01*
X020499Y004561D01*
X020379Y004681D01*
X020499Y004802D01*
X020601Y005048D01*
X020601Y005315D01*
X020499Y005561D01*
X020379Y005681D01*
X020499Y005802D01*
X020601Y006048D01*
X020601Y006315D01*
X020499Y006561D01*
X020336Y006724D01*
X020397Y006784D01*
X020453Y006862D01*
X020497Y006947D01*
X020526Y007039D01*
X020541Y007133D01*
X020541Y007163D01*
X019950Y007163D01*
X019950Y007200D01*
X020541Y007200D01*
X020541Y007229D01*
X020526Y007324D01*
X020497Y007416D01*
X020453Y007501D01*
X020397Y007579D01*
X020336Y007639D01*
X020499Y007802D01*
X020601Y008048D01*
X020601Y008315D01*
X020499Y008561D01*
X020311Y008749D01*
X020065Y008851D01*
X019798Y008851D01*
X019552Y008749D01*
X019363Y008561D01*
X019355Y008541D01*
X018831Y008541D01*
X017242Y010130D01*
X017109Y010185D01*
X016966Y010185D01*
X016213Y010185D01*
X016210Y010191D01*
X021384Y010191D01*
X021431Y010191D01*
X021550Y010182D01*
X021776Y010109D01*
X021969Y009969D01*
X022109Y009776D01*
X022182Y009550D01*
X022191Y009431D01*
X022191Y001729D01*
X022191Y001681D01*
X022182Y001563D01*
X022109Y001336D01*
X022064Y001275D01*
X022171Y001534D01*
X022171Y001829D01*
X022059Y002101D01*
X021851Y002309D01*
X021579Y002421D01*
X021284Y002421D01*
X021012Y002309D01*
X020804Y002101D01*
X020691Y001829D01*
X020691Y001534D01*
X020804Y001262D01*
X021012Y001054D01*
X021284Y000941D01*
X021579Y000941D01*
X021838Y001049D01*
X021776Y001004D01*
X021550Y000931D01*
X021431Y000921D01*
X001979Y000921D01*
X001931Y000921D01*
X001813Y000931D01*
X001679Y000974D02*
X021205Y000974D01*
X020934Y001133D02*
X001410Y001133D01*
X001287Y001291D02*
X020792Y001291D01*
X020726Y001450D02*
X001217Y001450D01*
X001177Y001608D02*
X015521Y001608D01*
X015337Y001767D02*
X001171Y001767D01*
X001171Y001925D02*
X015178Y001925D01*
X015020Y002084D02*
X001171Y002084D01*
X001171Y002242D02*
X010671Y002242D01*
X010657Y002256D02*
X010691Y002222D01*
X010732Y002199D01*
X010778Y002186D01*
X011009Y002186D01*
X011009Y002633D01*
X010621Y002633D01*
X010621Y002343D01*
X010634Y002297D01*
X010657Y002256D01*
X010621Y002401D02*
X001171Y002401D01*
X001171Y002560D02*
X010621Y002560D01*
X010621Y002877D02*
X001171Y002877D01*
X001171Y002718D02*
X011009Y002718D01*
X011009Y002560D02*
X011105Y002560D01*
X011105Y002401D02*
X011009Y002401D01*
X011009Y002242D02*
X011105Y002242D01*
X011105Y002877D02*
X011009Y002877D01*
X011009Y003035D02*
X011105Y003035D01*
X011408Y003194D02*
X007707Y003194D01*
X008078Y003352D02*
X008798Y003352D01*
X009065Y003352D02*
X009798Y003352D01*
X010065Y003352D02*
X010798Y003352D01*
X011065Y003352D02*
X012447Y003352D01*
X012447Y003511D02*
X012238Y003511D01*
X012244Y003515D02*
X012298Y003569D01*
X012342Y003630D01*
X012376Y003697D01*
X012400Y003769D01*
X012411Y003844D01*
X012411Y004181D01*
X011932Y004181D01*
X011932Y003401D01*
X011969Y003401D01*
X012044Y003413D01*
X012116Y003437D01*
X012183Y003471D01*
X012244Y003515D01*
X011932Y003511D02*
X011931Y003511D01*
X011625Y003511D02*
X011324Y003511D01*
X011428Y003669D02*
X011501Y003669D01*
X011931Y003669D02*
X011932Y003669D01*
X011931Y003828D02*
X011932Y003828D01*
X011931Y003986D02*
X011932Y003986D01*
X011931Y004145D02*
X011932Y004145D01*
X012411Y004145D02*
X012447Y004145D01*
X012447Y004304D02*
X012411Y004304D01*
X012411Y003986D02*
X012447Y003986D01*
X012447Y003828D02*
X012409Y003828D01*
X012447Y003669D02*
X012362Y003669D01*
X013167Y003669D02*
X013195Y003669D01*
X013195Y003828D02*
X013167Y003828D01*
X013167Y003986D02*
X013195Y003986D01*
X013195Y004145D02*
X013167Y004145D01*
X013167Y004304D02*
X013195Y004304D01*
X013195Y004462D02*
X013167Y004462D01*
X013167Y004621D02*
X013195Y004621D01*
X013270Y004779D02*
X013093Y004779D01*
X012934Y004938D02*
X013429Y004938D01*
X013587Y005096D02*
X012776Y005096D01*
X012617Y005255D02*
X013746Y005255D01*
X013904Y005413D02*
X012459Y005413D01*
X012300Y005572D02*
X014063Y005572D01*
X014071Y005730D02*
X012291Y005730D01*
X012291Y005889D02*
X012755Y005889D01*
X013133Y005889D02*
X013229Y005889D01*
X013608Y005889D02*
X014071Y005889D01*
X014071Y006048D02*
X013676Y006048D01*
X013676Y006206D02*
X014071Y006206D01*
X014071Y006365D02*
X013676Y006365D01*
X013676Y006523D02*
X014026Y006523D01*
X013930Y006682D02*
X013698Y006682D01*
X014791Y006478D02*
X014889Y006576D01*
X014931Y006677D01*
X014974Y006576D01*
X015126Y006424D01*
X015324Y006341D01*
X015539Y006341D01*
X015737Y006424D01*
X015889Y006576D01*
X015931Y006677D01*
X015974Y006576D01*
X016126Y006424D01*
X016324Y006341D01*
X016539Y006341D01*
X016737Y006424D01*
X016889Y006576D01*
X016931Y006677D01*
X016974Y006576D01*
X017126Y006424D01*
X017324Y006341D01*
X017539Y006341D01*
X017737Y006424D01*
X017821Y006508D01*
X017821Y004761D01*
X017798Y004794D01*
X017744Y004848D01*
X017683Y004892D01*
X017616Y004926D01*
X017544Y004950D01*
X017469Y004961D01*
X017432Y004961D01*
X017432Y004182D01*
X017431Y004182D01*
X017431Y004961D01*
X017394Y004961D01*
X017319Y004950D01*
X017247Y004926D01*
X017180Y004892D01*
X017119Y004848D01*
X017065Y004794D01*
X017021Y004733D01*
X016987Y004666D01*
X016963Y004594D01*
X016951Y004519D01*
X016951Y004182D01*
X017431Y004182D01*
X017431Y004181D01*
X017432Y004181D01*
X017432Y003401D01*
X017457Y003401D01*
X017447Y003379D01*
X017447Y003236D01*
X017447Y003213D01*
X017416Y003200D01*
X017348Y003132D01*
X017311Y003044D01*
X017311Y002319D01*
X017323Y002291D01*
X015831Y002291D01*
X014791Y003331D01*
X014791Y003478D01*
X014889Y003576D01*
X014931Y003678D01*
X014974Y003576D01*
X015126Y003424D01*
X015324Y003341D01*
X015539Y003341D01*
X015737Y003424D01*
X015889Y003576D01*
X015966Y003761D01*
X015987Y003697D01*
X016021Y003630D01*
X016065Y003569D01*
X016119Y003515D01*
X016180Y003471D01*
X016247Y003437D01*
X016319Y003413D01*
X016394Y003401D01*
X016431Y003401D01*
X016431Y004181D01*
X016432Y004181D01*
X016432Y004182D01*
X016431Y004182D01*
X016431Y004961D01*
X016394Y004961D01*
X016319Y004950D01*
X016247Y004926D01*
X016180Y004892D01*
X016119Y004848D01*
X016065Y004794D01*
X016021Y004733D01*
X015987Y004666D01*
X015966Y004602D01*
X015889Y004787D01*
X015737Y004939D01*
X015539Y005021D01*
X015324Y005021D01*
X015126Y004939D01*
X014974Y004787D01*
X014931Y004685D01*
X014889Y004787D01*
X014737Y004939D01*
X014539Y005021D01*
X014530Y005021D01*
X014635Y005126D01*
X014737Y005227D01*
X014791Y005360D01*
X014791Y006478D01*
X014837Y006523D02*
X015026Y006523D01*
X014791Y006365D02*
X015268Y006365D01*
X015595Y006365D02*
X016268Y006365D01*
X016026Y006523D02*
X015837Y006523D01*
X016595Y006365D02*
X017268Y006365D01*
X017026Y006523D02*
X016837Y006523D01*
X017595Y006365D02*
X017821Y006365D01*
X017821Y006206D02*
X014791Y006206D01*
X014791Y006048D02*
X017821Y006048D01*
X017821Y005889D02*
X014791Y005889D01*
X014791Y005730D02*
X017821Y005730D01*
X017821Y005572D02*
X014791Y005572D01*
X014791Y005413D02*
X017821Y005413D01*
X017821Y005255D02*
X014748Y005255D01*
X014605Y005096D02*
X017821Y005096D01*
X017821Y004938D02*
X017580Y004938D01*
X017432Y004938D02*
X017431Y004938D01*
X017283Y004938D02*
X016580Y004938D01*
X016616Y004926D02*
X016544Y004950D01*
X016469Y004961D01*
X016432Y004961D01*
X016432Y004182D01*
X016911Y004182D01*
X016911Y004519D01*
X016900Y004594D01*
X016876Y004666D01*
X016842Y004733D01*
X016798Y004794D01*
X016744Y004848D01*
X016683Y004892D01*
X016616Y004926D01*
X016432Y004938D02*
X016431Y004938D01*
X016283Y004938D02*
X015739Y004938D01*
X015893Y004779D02*
X016054Y004779D01*
X015972Y004621D02*
X015958Y004621D01*
X016431Y004621D02*
X016432Y004621D01*
X016431Y004462D02*
X016432Y004462D01*
X016431Y004304D02*
X016432Y004304D01*
X016432Y004181D02*
X016911Y004181D01*
X016911Y003844D01*
X016900Y003769D01*
X016876Y003697D01*
X016842Y003630D01*
X016798Y003569D01*
X016744Y003515D01*
X016683Y003471D01*
X016616Y003437D01*
X016544Y003413D01*
X016469Y003401D01*
X016432Y003401D01*
X016432Y004181D01*
X016431Y004145D02*
X016432Y004145D01*
X016431Y003986D02*
X016432Y003986D01*
X016431Y003828D02*
X016432Y003828D01*
X016431Y003669D02*
X016432Y003669D01*
X016862Y003669D02*
X017001Y003669D01*
X016987Y003697D02*
X017021Y003630D01*
X017065Y003569D01*
X017119Y003515D01*
X017180Y003471D01*
X017247Y003437D01*
X017319Y003413D01*
X017394Y003401D01*
X017431Y003401D01*
X017431Y004181D01*
X016951Y004181D01*
X016951Y003844D01*
X016963Y003769D01*
X016987Y003697D01*
X016954Y003828D02*
X016909Y003828D01*
X016911Y003986D02*
X016951Y003986D01*
X016951Y004145D02*
X016911Y004145D01*
X016911Y004304D02*
X016951Y004304D01*
X016951Y004462D02*
X016911Y004462D01*
X016891Y004621D02*
X016972Y004621D01*
X017054Y004779D02*
X016808Y004779D01*
X016432Y004779D02*
X016431Y004779D01*
X017431Y004779D02*
X017432Y004779D01*
X017431Y004621D02*
X017432Y004621D01*
X017431Y004462D02*
X017432Y004462D01*
X017431Y004304D02*
X017432Y004304D01*
X017431Y004145D02*
X017432Y004145D01*
X017431Y003986D02*
X017432Y003986D01*
X017431Y003828D02*
X017432Y003828D01*
X017431Y003669D02*
X017432Y003669D01*
X017431Y003511D02*
X017432Y003511D01*
X017447Y003352D02*
X015565Y003352D01*
X015298Y003352D02*
X014791Y003352D01*
X014824Y003511D02*
X015038Y003511D01*
X014935Y003669D02*
X014928Y003669D01*
X014038Y003511D02*
X013915Y003511D01*
X013915Y003352D02*
X014071Y003352D01*
X014071Y003194D02*
X013953Y003194D01*
X014051Y003035D02*
X014102Y003035D01*
X014051Y002877D02*
X014227Y002877D01*
X014386Y002718D02*
X014051Y002718D01*
X014051Y002560D02*
X014544Y002560D01*
X014703Y002401D02*
X014051Y002401D01*
X014020Y002242D02*
X014861Y002242D01*
X015562Y002560D02*
X017311Y002560D01*
X017311Y002718D02*
X015404Y002718D01*
X015245Y002877D02*
X017311Y002877D01*
X017311Y003035D02*
X015087Y003035D01*
X014928Y003194D02*
X017409Y003194D01*
X017125Y003511D02*
X016738Y003511D01*
X016432Y003511D02*
X016431Y003511D01*
X016125Y003511D02*
X015824Y003511D01*
X015928Y003669D02*
X016001Y003669D01*
X013935Y003669D02*
X013915Y003669D01*
X013195Y003511D02*
X013167Y003511D01*
X013167Y003352D02*
X013195Y003352D01*
X012409Y003194D02*
X012203Y003194D01*
X010626Y003035D02*
X001171Y003035D01*
X001171Y003194D02*
X007155Y003194D01*
X006997Y003352D02*
X001171Y003352D01*
X001171Y003511D02*
X006891Y003511D01*
X006891Y003669D02*
X005764Y003669D01*
X005751Y003660D02*
X005829Y003716D01*
X005897Y003784D01*
X005953Y003862D01*
X005997Y003947D01*
X006026Y004039D01*
X006041Y004133D01*
X006041Y004163D01*
X005450Y004163D01*
X005450Y003571D01*
X005479Y003571D01*
X005574Y003586D01*
X005666Y003616D01*
X005751Y003660D01*
X005450Y003669D02*
X005413Y003669D01*
X005413Y003571D02*
X005413Y004163D01*
X004821Y004163D01*
X004821Y004133D01*
X004836Y004039D01*
X004866Y003947D01*
X004910Y003862D01*
X004966Y003784D01*
X005034Y003716D01*
X005112Y003660D01*
X005197Y003616D01*
X005289Y003586D01*
X005383Y003571D01*
X005413Y003571D01*
X005098Y003669D02*
X001171Y003669D01*
X001171Y003828D02*
X004934Y003828D01*
X004853Y003986D02*
X001171Y003986D01*
X001171Y004145D02*
X004821Y004145D01*
X004833Y004304D02*
X001171Y004304D01*
X001171Y004462D02*
X004890Y004462D01*
X005008Y004621D02*
X001171Y004621D01*
X001171Y004779D02*
X004886Y004779D01*
X004807Y004938D02*
X001171Y004938D01*
X001171Y005096D02*
X004761Y005096D01*
X004761Y005255D02*
X001171Y005255D01*
X001171Y005413D02*
X004802Y005413D01*
X004874Y005572D02*
X001171Y005572D01*
X001171Y005730D02*
X004935Y005730D01*
X004827Y005889D02*
X001171Y005889D01*
X001171Y006048D02*
X004762Y006048D01*
X004761Y006206D02*
X001171Y006206D01*
X001171Y006365D02*
X004782Y006365D01*
X004848Y006523D02*
X001171Y006523D01*
X001171Y006682D02*
X004984Y006682D01*
X004848Y006840D02*
X001171Y006840D01*
X001171Y006999D02*
X004782Y006999D01*
X004761Y007157D02*
X001171Y007157D01*
X001171Y007316D02*
X004762Y007316D01*
X004828Y007474D02*
X001171Y007474D01*
X001171Y007633D02*
X004935Y007633D01*
X005154Y007791D02*
X001171Y007791D01*
X001171Y007950D02*
X005691Y007950D01*
X005850Y008109D02*
X001171Y008109D01*
X001171Y008267D02*
X006008Y008267D01*
X006167Y008426D02*
X001171Y008426D01*
X001171Y008584D02*
X006325Y008584D01*
X006484Y008743D02*
X002203Y008743D01*
X002448Y008901D02*
X006642Y008901D01*
X007918Y009060D02*
X002578Y009060D01*
X002644Y009218D02*
X007936Y009218D01*
X007936Y009377D02*
X002671Y009377D01*
X002671Y009535D02*
X007936Y009535D01*
X007936Y009498D02*
X008383Y009498D01*
X008383Y009886D01*
X008093Y009886D01*
X008047Y009874D01*
X008006Y009850D01*
X007972Y009817D01*
X007949Y009775D01*
X007936Y009730D01*
X007936Y009498D01*
X007936Y009694D02*
X002624Y009694D01*
X002557Y009853D02*
X008010Y009853D01*
X008383Y009853D02*
X008479Y009853D01*
X008479Y009694D02*
X008383Y009694D01*
X008383Y009535D02*
X008479Y009535D01*
X008926Y009535D02*
X011436Y009535D01*
X011436Y009605D02*
X011436Y009373D01*
X011883Y009373D01*
X011883Y009761D01*
X011593Y009761D01*
X011547Y009749D01*
X011506Y009725D01*
X011472Y009692D01*
X011449Y009650D01*
X011436Y009605D01*
X011475Y009694D02*
X008926Y009694D01*
X008853Y009853D02*
X013593Y009853D01*
X013180Y009694D02*
X012388Y009694D01*
X012426Y009535D02*
X013022Y009535D01*
X012891Y009377D02*
X012426Y009377D01*
X012426Y009218D02*
X012891Y009218D01*
X012891Y009060D02*
X012426Y009060D01*
X012462Y008901D02*
X012948Y008901D01*
X013106Y008743D02*
X012486Y008743D01*
X012486Y008584D02*
X013391Y008584D01*
X013391Y008426D02*
X012486Y008426D01*
X012486Y008267D02*
X013391Y008267D01*
X013491Y008109D02*
X012413Y008109D01*
X012291Y007950D02*
X013571Y007950D01*
X013571Y007791D02*
X012385Y007791D01*
X012453Y007633D02*
X013571Y007633D01*
X014291Y008008D02*
X014291Y008028D01*
X014471Y008208D01*
X014471Y008655D01*
X014425Y008701D01*
X014431Y008701D01*
X014431Y009181D01*
X014432Y009181D01*
X014432Y009182D01*
X014911Y009182D01*
X014911Y009380D01*
X014826Y009465D01*
X015150Y009465D01*
X015163Y009433D01*
X015211Y009385D01*
X015199Y009363D01*
X015186Y009317D01*
X015186Y009086D01*
X015633Y009086D01*
X015633Y008990D01*
X015186Y008990D01*
X015186Y008758D01*
X015199Y008712D01*
X015222Y008671D01*
X015256Y008638D01*
X015297Y008614D01*
X015343Y008602D01*
X015633Y008602D01*
X015633Y008989D01*
X015729Y008989D01*
X015729Y008602D01*
X016020Y008602D01*
X016066Y008614D01*
X016107Y008638D01*
X016140Y008671D01*
X016164Y008712D01*
X016176Y008758D01*
X016176Y008990D01*
X015730Y008990D01*
X015730Y009086D01*
X016176Y009086D01*
X016176Y009317D01*
X016164Y009363D01*
X016151Y009385D01*
X016200Y009433D01*
X016213Y009465D01*
X016889Y009465D01*
X018172Y008181D01*
X017876Y007885D01*
X017851Y007825D01*
X017737Y007939D01*
X017539Y008021D01*
X017324Y008021D01*
X017126Y007939D01*
X016974Y007787D01*
X016931Y007685D01*
X016889Y007787D01*
X016737Y007939D01*
X016539Y008021D01*
X016324Y008021D01*
X016126Y007939D01*
X015974Y007787D01*
X015931Y007685D01*
X015889Y007787D01*
X015737Y007939D01*
X015539Y008021D01*
X015324Y008021D01*
X015126Y007939D01*
X014974Y007787D01*
X014931Y007685D01*
X014889Y007787D01*
X014737Y007939D01*
X014539Y008021D01*
X014324Y008021D01*
X014291Y008008D01*
X014372Y008109D02*
X018100Y008109D01*
X017941Y007950D02*
X017711Y007950D01*
X017152Y007950D02*
X016711Y007950D01*
X016885Y007791D02*
X016978Y007791D01*
X016152Y007950D02*
X015711Y007950D01*
X015885Y007791D02*
X015978Y007791D01*
X015152Y007950D02*
X014711Y007950D01*
X014885Y007791D02*
X014978Y007791D01*
X014471Y008267D02*
X018087Y008267D01*
X017928Y008426D02*
X014471Y008426D01*
X014471Y008584D02*
X017769Y008584D01*
X017611Y008743D02*
X016172Y008743D01*
X015729Y008743D02*
X015633Y008743D01*
X015633Y008901D02*
X015729Y008901D01*
X015730Y009060D02*
X017294Y009060D01*
X017135Y009218D02*
X016176Y009218D01*
X016156Y009377D02*
X016977Y009377D01*
X017678Y009694D02*
X022135Y009694D01*
X022053Y009853D02*
X017519Y009853D01*
X017361Y010011D02*
X021911Y010011D01*
X021588Y010170D02*
X017147Y010170D01*
X017836Y009535D02*
X022183Y009535D01*
X022191Y009377D02*
X017995Y009377D01*
X018154Y009218D02*
X022191Y009218D01*
X022191Y009060D02*
X018312Y009060D01*
X018471Y008901D02*
X022191Y008901D01*
X022191Y008743D02*
X020318Y008743D01*
X020476Y008584D02*
X022191Y008584D01*
X022191Y008426D02*
X020555Y008426D01*
X020601Y008267D02*
X022191Y008267D01*
X022191Y008109D02*
X020601Y008109D01*
X020561Y007950D02*
X022191Y007950D01*
X022191Y007791D02*
X020489Y007791D01*
X020342Y007633D02*
X022191Y007633D01*
X022191Y007474D02*
X020467Y007474D01*
X020528Y007316D02*
X022191Y007316D01*
X022191Y007157D02*
X020541Y007157D01*
X020513Y006999D02*
X022191Y006999D01*
X022191Y006840D02*
X020437Y006840D01*
X020379Y006682D02*
X022191Y006682D01*
X022191Y006523D02*
X020515Y006523D01*
X020581Y006365D02*
X022191Y006365D01*
X022191Y006206D02*
X020601Y006206D01*
X020601Y006048D02*
X022191Y006048D01*
X022191Y005889D02*
X020535Y005889D01*
X020428Y005730D02*
X022191Y005730D01*
X022191Y005572D02*
X020488Y005572D01*
X020561Y005413D02*
X022191Y005413D01*
X022191Y005255D02*
X020601Y005255D01*
X020601Y005096D02*
X022191Y005096D01*
X022191Y004938D02*
X020556Y004938D01*
X020477Y004779D02*
X022191Y004779D01*
X022191Y004621D02*
X020440Y004621D01*
X020540Y004462D02*
X022191Y004462D01*
X022191Y004304D02*
X020601Y004304D01*
X020601Y004145D02*
X022191Y004145D01*
X022191Y003986D02*
X020576Y003986D01*
X020510Y003828D02*
X022191Y003828D01*
X022191Y003669D02*
X020391Y003669D01*
X020520Y003511D02*
X022191Y003511D01*
X022191Y003352D02*
X020586Y003352D01*
X020601Y003194D02*
X022191Y003194D01*
X022191Y003035D02*
X020596Y003035D01*
X020530Y002877D02*
X022191Y002877D01*
X022191Y002718D02*
X020416Y002718D01*
X020181Y002560D02*
X022191Y002560D01*
X022191Y002401D02*
X021628Y002401D01*
X021917Y002242D02*
X022191Y002242D01*
X022191Y002084D02*
X022066Y002084D01*
X022131Y001925D02*
X022191Y001925D01*
X022191Y001767D02*
X022171Y001767D01*
X022171Y001608D02*
X022186Y001608D01*
X022145Y001450D02*
X022136Y001450D01*
X022076Y001291D02*
X022071Y001291D01*
X021684Y000974D02*
X021658Y000974D01*
X020691Y001608D02*
X018467Y001608D01*
X018651Y001767D02*
X020691Y001767D01*
X020731Y001925D02*
X018809Y001925D01*
X018905Y002084D02*
X020797Y002084D01*
X020946Y002242D02*
X019020Y002242D01*
X019660Y002401D02*
X021235Y002401D01*
X019264Y003041D02*
X019051Y003041D01*
X019051Y003044D01*
X019015Y003132D01*
X018947Y003200D01*
X018859Y003236D01*
X018252Y003236D01*
X018241Y003232D01*
X018385Y003376D01*
X018385Y003376D01*
X018487Y003477D01*
X018541Y003610D01*
X018541Y007532D01*
X018831Y007821D01*
X019355Y007821D01*
X019363Y007802D01*
X019526Y007639D01*
X019466Y007579D01*
X019410Y007501D01*
X019366Y007416D01*
X019336Y007324D01*
X019321Y007229D01*
X019321Y007200D01*
X019913Y007200D01*
X019913Y007163D01*
X019321Y007163D01*
X019321Y007133D01*
X019336Y007039D01*
X019366Y006947D01*
X019410Y006862D01*
X019466Y006784D01*
X019526Y006724D01*
X019363Y006561D01*
X019261Y006315D01*
X019261Y006048D01*
X019363Y005802D01*
X019484Y005681D01*
X019363Y005561D01*
X019261Y005315D01*
X019261Y005048D01*
X019363Y004802D01*
X019484Y004681D01*
X019363Y004561D01*
X019261Y004315D01*
X019261Y004048D01*
X019363Y003802D01*
X019484Y003681D01*
X019363Y003561D01*
X019261Y003315D01*
X019261Y003048D01*
X019264Y003041D01*
X019261Y003194D02*
X018953Y003194D01*
X019277Y003352D02*
X018361Y003352D01*
X018500Y003511D02*
X019343Y003511D01*
X019472Y003669D02*
X018541Y003669D01*
X018541Y003828D02*
X019353Y003828D01*
X019287Y003986D02*
X018541Y003986D01*
X018541Y004145D02*
X019261Y004145D01*
X019261Y004304D02*
X018541Y004304D01*
X018541Y004462D02*
X019323Y004462D01*
X019423Y004621D02*
X018541Y004621D01*
X018541Y004779D02*
X019386Y004779D01*
X019307Y004938D02*
X018541Y004938D01*
X018541Y005096D02*
X019261Y005096D01*
X019261Y005255D02*
X018541Y005255D01*
X018541Y005413D02*
X019302Y005413D01*
X019374Y005572D02*
X018541Y005572D01*
X018541Y005730D02*
X019435Y005730D01*
X019327Y005889D02*
X018541Y005889D01*
X018541Y006048D02*
X019262Y006048D01*
X019261Y006206D02*
X018541Y006206D01*
X018541Y006365D02*
X019282Y006365D01*
X019348Y006523D02*
X018541Y006523D01*
X018541Y006682D02*
X019484Y006682D01*
X019425Y006840D02*
X018541Y006840D01*
X018541Y006999D02*
X019349Y006999D01*
X019321Y007157D02*
X018541Y007157D01*
X018541Y007316D02*
X019335Y007316D01*
X019396Y007474D02*
X018541Y007474D01*
X018642Y007633D02*
X019520Y007633D01*
X019374Y007791D02*
X018801Y007791D01*
X018788Y008584D02*
X019387Y008584D01*
X019545Y008743D02*
X018629Y008743D01*
X017452Y008901D02*
X016176Y008901D01*
X015633Y009060D02*
X014911Y009060D01*
X014911Y008983D02*
X014911Y009181D01*
X014432Y009181D01*
X014432Y008701D01*
X014630Y008701D01*
X014911Y008983D01*
X014830Y008901D02*
X015186Y008901D01*
X015191Y008743D02*
X014672Y008743D01*
X014432Y008743D02*
X014431Y008743D01*
X014431Y008901D02*
X014432Y008901D01*
X014431Y009060D02*
X014432Y009060D01*
X014911Y009218D02*
X015186Y009218D01*
X015207Y009377D02*
X014911Y009377D01*
X013752Y010011D02*
X002398Y010011D01*
X002083Y010170D02*
X013966Y010170D01*
X011979Y009694D02*
X011883Y009694D01*
X011883Y009535D02*
X011979Y009535D01*
X011979Y009377D02*
X011883Y009377D01*
X011436Y009377D02*
X008926Y009377D01*
X008926Y009218D02*
X011436Y009218D01*
X011436Y009060D02*
X010985Y009060D01*
X011017Y008901D02*
X011401Y008901D01*
X011376Y008743D02*
X011017Y008743D01*
X011017Y008584D02*
X011376Y008584D01*
X011376Y008426D02*
X011017Y008426D01*
X010953Y008267D02*
X011376Y008267D01*
X011450Y008109D02*
X010291Y008109D01*
X010291Y007950D02*
X010652Y007950D01*
X010478Y007791D02*
X010385Y007791D01*
X010464Y008267D02*
X010580Y008267D01*
X010580Y008426D02*
X010464Y008426D01*
X010464Y008584D02*
X010580Y008584D01*
X010580Y008743D02*
X010464Y008743D01*
X010464Y008739D02*
X010464Y009137D01*
X010183Y009137D01*
X010138Y009125D01*
X010096Y009101D01*
X010063Y009068D01*
X010039Y009026D01*
X010027Y008981D01*
X010027Y008739D01*
X010464Y008739D01*
X010464Y008901D02*
X010580Y008901D01*
X010580Y009060D02*
X010464Y009060D01*
X010059Y009060D02*
X009873Y009060D01*
X009896Y008901D02*
X010027Y008901D01*
X010027Y008743D02*
X009896Y008743D01*
X011211Y007950D02*
X011571Y007950D01*
X011478Y007791D02*
X011385Y007791D01*
X012471Y007474D02*
X012670Y007474D01*
X012626Y007316D02*
X012471Y007316D01*
X012471Y007157D02*
X012626Y007157D01*
X012626Y006999D02*
X012471Y006999D01*
X012471Y006840D02*
X012626Y006840D01*
X012665Y006682D02*
X012433Y006682D01*
X012337Y006523D02*
X012686Y006523D01*
X012686Y006365D02*
X012291Y006365D01*
X012291Y006206D02*
X012686Y006206D01*
X012686Y006048D02*
X012291Y006048D01*
X013133Y006048D02*
X013229Y006048D01*
X013229Y006206D02*
X013133Y006206D01*
X014739Y004938D02*
X015124Y004938D01*
X014970Y004779D02*
X014893Y004779D01*
X017808Y004779D02*
X017821Y004779D01*
X017311Y002401D02*
X015721Y002401D01*
X012343Y002242D02*
X012270Y002242D01*
X010538Y003511D02*
X010324Y003511D01*
X010428Y003669D02*
X010435Y003669D01*
X009538Y003511D02*
X009324Y003511D01*
X009428Y003669D02*
X009435Y003669D01*
X008538Y003511D02*
X008270Y003511D01*
X008428Y003669D02*
X008435Y003669D01*
X007886Y004145D02*
X007731Y004145D01*
X008044Y004304D02*
X006030Y004304D01*
X006041Y004145D02*
X007131Y004145D01*
X006973Y003986D02*
X006009Y003986D01*
X005929Y003828D02*
X006891Y003828D01*
X005973Y004462D02*
X008203Y004462D01*
X008405Y004621D02*
X005855Y004621D01*
X005977Y004779D02*
X008470Y004779D01*
X005450Y004145D02*
X005413Y004145D01*
X005413Y003986D02*
X005450Y003986D01*
X005450Y003828D02*
X005413Y003828D01*
X001660Y008743D02*
X001171Y008743D01*
X001171Y008901D02*
X001415Y008901D01*
X001284Y009060D02*
X001171Y009060D01*
X001171Y009218D02*
X001219Y009218D01*
X001191Y009377D02*
X001171Y009377D01*
X001180Y009535D02*
X001191Y009535D01*
X001227Y009694D02*
X001239Y009694D01*
X001774Y010170D02*
X001780Y010170D01*
M02*
